<svg width="28" height="28" viewBox="0 0 28 28" fill="none" xmlns="http://www.w3.org/2000/svg">
  <path d="M6.41663 22.75C6.41663 22.75 10.5 21 11.6666 19.8333C12.8333 18.6667 9.33329 18.6667 9.33329 12.8333C9.33329 7 14 7 14 7C14 7 18.6666 7 18.6666 12.8333C18.6666 18.6667 15.1666 18.6667 16.3333 19.8333C17.5 21 21.5833 22.75 21.5833 22.75" stroke="white" stroke-width="1.16667" stroke-linecap="round"/>
  <path fill-rule="evenodd" clip-rule="evenodd" d="M14 25.6667C20.4434 25.6667 25.6667 20.4433 25.6667 14C25.6667 7.55667 20.4434 2.33333 14 2.33333C7.55672 2.33333 2.33337 7.55667 2.33337 14C2.33337 20.4433 7.55672 25.6667 14 25.6667Z" stroke="white" stroke-width="1.16667"/>
</svg>